<svg width="21" height="20" viewBox="0 0 21 20" fill="none" xmlns="http://www.w3.org/2000/svg">
<g id="tag">
<path id="Vector" d="M17.0753 11.3343L11.8394 16.5715C11.7038 16.7074 11.5427 16.8151 11.3654 16.8886C11.1881 16.9622 10.9981 17 10.8061 17C10.6142 17 10.4241 16.9622 10.2468 16.8886C10.0695 16.8151 9.90847 16.7074 9.77283 16.5715L3.79321 10.5973C3.60548 10.4098 3.5 10.1553 3.5 9.88991V4C3.5 3.44772 3.94772 3 4.5 3H10.3882C10.6534 3 10.9078 3.10539 11.0954 3.29299L17.0753 9.27447C17.3473 9.54818 17.5 9.91844 17.5 10.3044C17.5 10.6903 17.3473 11.0606 17.0753 11.3343Z" stroke="black" stroke-linecap="round" stroke-linejoin="round"/>
<path id="Vector_2" d="M6.33334 5.83331H6.34334" stroke="black" stroke-width="2" stroke-linecap="round" stroke-linejoin="round"/>
</g>
</svg>
